<svg width="40" height="40" viewBox="0 0 40 40" fill="none" xmlns="http://www.w3.org/2000/svg">
  <rect width="40" height="40" rx="8" fill="#2563EB"/>
  <path d="M20 10C14.477 10 10 14.477 10 20C10 25.523 14.477 30 20 30C25.523 30 30 25.523 30 20C30 14.477 25.523 10 20 10ZM20 28C15.582 28 12 24.418 12 20C12 15.582 15.582 12 20 12C24.418 12 28 15.582 28 20C28 24.418 24.418 28 20 28Z" fill="white"/>
  <path d="M20 15C19.448 15 19 15.448 19 16V24C19 24.552 19.448 25 20 25C20.552 25 21 24.552 21 24V16C21 15.448 20.552 15 20 15Z" fill="white"/>
  <path d="M24 19H16C15.448 19 15 19.448 15 20C15 20.552 15.448 21 16 21H24C24.552 21 25 20.552 25 20C25 19.448 24.552 19 24 19Z" fill="white"/>
</svg>
